HIERARCHY
ROOT joint_Root
{
	OFFSET 0.0 0.0 0.0
	CHANNELS 6 Xposition Yposition Zposition Zrotation Xrotation Yrotation 
	JOINT Hips
	{
		OFFSET 4.5925 91.4895 -427.239
		CHANNELS 6 Xposition Yposition Zposition Zrotation Xrotation Yrotation 
		JOINT Spine
		{
			OFFSET 15.7357 0.0 0.0
			CHANNELS 6 Xposition Yposition Zposition Zrotation Xrotation Yrotation 
			JOINT Chest
			{
				OFFSET 8.98455 -0.406207 0.0
				CHANNELS 6 Xposition Yposition Zposition Zrotation Xrotation Yrotation 
				JOINT Neck
				{
					OFFSET 16.3773 0.0 0.0
					CHANNELS 6 Xposition Yposition Zposition Zrotation Xrotation Yrotation 
					JOINT Head
					{
						OFFSET 6.45672 0.0 0.0
						CHANNELS 6 Xposition Yposition Zposition Zrotation Xrotation Yrotation 
						End Site
						{
							OFFSET 0.0 0.0 0.0
						}
					}
				}
				JOINT Shoulder_L
				{
					OFFSET 12.9942 -0.242716 4.98039
					CHANNELS 6 Xposition Yposition Zposition Zrotation Xrotation Yrotation 
					JOINT UpperArm_L
					{
						OFFSET 5.34809 0.0 0.0
						CHANNELS 6 Xposition Yposition Zposition Zrotation Xrotation Yrotation 
						JOINT LowerArm_L
						{
							OFFSET 24.3286 1.87007e-05 0.0
							CHANNELS 6 Xposition Yposition Zposition Zrotation Xrotation Yrotation 
							JOINT Hand_L
							{
								OFFSET 22.2916 0.0 0.0
								CHANNELS 6 Xposition Yposition Zposition Zrotation Xrotation Yrotation 
								End Site
								{
									OFFSET 0.0 0.0 0.0
								}
							}
						}
					}
				}
				JOINT Shoulder_R
				{
					OFFSET 12.9945 -0.242716 -4.98039
					CHANNELS 6 Xposition Yposition Zposition Zrotation Xrotation Yrotation 
					JOINT UpperArm_R
					{
						OFFSET -5.34813 0.0 0.0
						CHANNELS 6 Xposition Yposition Zposition Zrotation Xrotation Yrotation 
						JOINT LowerArm_R
						{
							OFFSET -24.3289 0.000322201 0.0
							CHANNELS 6 Xposition Yposition Zposition Zrotation Xrotation Yrotation 
							JOINT Hand_R
							{
								OFFSET -22.2915 -0.000108084 0.0
								CHANNELS 6 Xposition Yposition Zposition Zrotation Xrotation Yrotation 
								End Site
								{
									OFFSET 0.0 0.0 0.0
								}
							}
						}
					}
				}
			}
		}
		JOINT UpperLeg_L
		{
			OFFSET -2.19248 -6.46944 0.0
			CHANNELS 6 Xposition Yposition Zposition Zrotation Xrotation Yrotation 
			JOINT LowerLeg_L
			{
				OFFSET 39.0811 0.0 -1.23785e-05
				CHANNELS 6 Xposition Yposition Zposition Zrotation Xrotation Yrotation 
				JOINT Foot_L
				{
					OFFSET 40.9854 0.0 -1.26872e-05
					CHANNELS 6 Xposition Yposition Zposition Zrotation Xrotation Yrotation 
					JOINT Toes_L
					{
						OFFSET 11.7543 0.0 0.0
						CHANNELS 6 Xposition Yposition Zposition Zrotation Xrotation Yrotation 
						End Site
						{
							OFFSET 0.0 0.0 0.0
						}
					}
				}
			}
		}
		JOINT UpperLeg_R
		{
			OFFSET -2.19251 6.46944 0.0
			CHANNELS 6 Xposition Yposition Zposition Zrotation Xrotation Yrotation 
			JOINT LowerLeg_R
			{
				OFFSET -39.0811 -0.00228153 -0.0401928
				CHANNELS 6 Xposition Yposition Zposition Zrotation Xrotation Yrotation 
				JOINT Foot_R
				{
					OFFSET -40.9854 0.0 0.0
					CHANNELS 6 Xposition Yposition Zposition Zrotation Xrotation Yrotation 
					JOINT Toes_R
					{
						OFFSET -11.7543 0.0 0.0
						CHANNELS 6 Xposition Yposition Zposition Zrotation Xrotation Yrotation 
						End Site
						{
							OFFSET 0.0 0.0 0.0
						}
					}
				}
			}
		}
	}
}
MOTION
Frames:	8
Frame Time:	0.0333333
0.000000 0.000000 0.000000 0.000000 0.000000 -0.000000 -1.415160 90.539500 -4.299110 88.772900 -0.702565 14.505600 15.735700 0.000005 -0.000001 88.387100 76.835600 -87.984200 8.984550 -0.406207 -0.000000 18.556000 -0.688916 0.920227 16.377300 -0.000001 -0.000001 6.373120 -3.854550 1.651700 6.456720 -0.000001 -0.000000 -5.119350 -3.574800 1.484350 12.994200 -0.242716 4.980390 -91.515200 7.354250 -78.324500 5.348090 -0.000007 -0.000001 -56.250700 37.613600 -25.760800 24.328600 0.000019 0.000005 11.122700 21.225000 -28.504500 22.291600 -0.000001 0.000005 11.415600 5.252200 1.374250 12.994500 -0.242716 -4.980390 88.866300 11.627000 -84.391900 -5.348130 -0.000001 -0.000004 -55.830600 34.738700 -21.705200 -24.328900 0.000322 -0.000009 2.897910 7.007620 -22.542100 -22.291500 -0.000108 -0.000004 18.832400 5.418530 -3.549640 -2.192480 -6.469440 -0.000000 -172.366000 -12.569700 -0.498198 39.081100 -0.000007 -0.000012 -0.178716 0.269014 33.597800 40.985400 -0.000006 -0.000013 -0.392114 5.194470 -68.087600 11.754300 -0.000000 0.000003 -0.000170 -0.001616 -16.638800 -2.192510 6.469440 -0.000001 173.370000 23.158100 -177.857000 -39.081100 -0.002282 -0.040193 -0.198247 0.318773 32.303300 -40.985400 0.000008 0.000006 3.982900 13.235900 -69.142200 -11.754300 -0.000006 -0.000006 -0.002955 -0.040097 -18.203700
0.000000 0.000000 0.000000 0.000000 0.000000 -0.000000 -1.450630 90.540200 -4.280460 88.762000 -0.677470 14.496200 15.735700 0.000005 -0.000001 88.373600 76.846500 -87.968400 8.984550 -0.406207 -0.000000 18.534000 -0.694271 0.925566 16.377300 -0.000001 -0.000001 6.459120 -3.846090 1.635020 6.456720 -0.000001 -0.000000 -5.145450 -3.594200 1.496130 12.994200 -0.242716 4.980390 -91.512700 7.314180 -78.281700 5.348090 -0.000007 -0.000001 -56.224300 37.081800 -25.819000 24.328600 0.000019 0.000005 11.422400 21.111000 -29.290400 22.291600 -0.000001 0.000005 11.611300 5.251120 1.403260 12.994500 -0.242716 -4.980390 88.866500 11.595700 -84.378000 -5.348130 -0.000001 -0.000004 -55.908200 34.727100 -21.656800 -24.328900 0.000322 -0.000009 2.896200 7.035120 -22.451200 -22.291500 -0.000108 -0.000004 18.809500 5.419250 -3.573830 -2.192480 -6.469440 -0.000000 -172.333000 -12.577400 -0.496134 39.081100 -0.000007 -0.000012 -0.174550 0.262789 33.593300 40.985400 -0.000006 -0.000013 -0.399251 5.248390 -68.091100 11.754300 -0.000000 0.000003 -0.000174 -0.001650 -16.640000 -2.192510 6.469440 -0.000001 173.390000 23.171900 -177.835000 -39.081100 -0.002282 -0.040193 -0.203016 0.326509 32.288100 -40.985400 0.000008 0.000006 3.991940 13.215800 -69.159500 -11.754300 -0.000006 -0.000006 -0.002968 -0.040235 -18.209400
0.000000 0.000000 0.000000 0.000000 0.000000 -0.000000 -1.477150 90.538000 -4.269440 88.773800 -0.626327 14.462300 15.735700 0.000005 -0.000001 88.404300 76.862800 -88.000400 8.984550 -0.406207 -0.000000 18.501700 -0.679862 0.920348 16.377300 -0.000001 -0.000001 6.528280 -3.858590 1.648340 6.456720 -0.000001 -0.000000 -5.188650 -3.595610 1.478980 12.994200 -0.242716 4.980390 -91.511700 7.300420 -78.268000 5.348090 -0.000007 -0.000001 -56.068900 36.470600 -25.953600 24.328600 0.000019 0.000005 11.697700 20.749200 -30.303100 22.291600 -0.000001 0.000005 11.906000 5.249150 1.455090 12.994500 -0.242716 -4.980390 88.865900 11.558300 -84.357200 -5.348130 -0.000001 -0.000004 -55.947600 34.773500 -21.586800 -24.328900 0.000322 -0.000009 2.863670 6.935820 -22.508600 -22.291500 -0.000108 -0.000004 18.885900 5.418040 -3.533080 -2.192480 -6.469440 -0.000000 -172.342000 -12.524900 -0.536145 39.081100 -0.000007 -0.000012 -0.178548 0.268825 33.591600 40.985400 -0.000006 -0.000013 -0.424497 5.246960 -68.085300 11.754300 -0.000000 0.000003 -0.000172 -0.001632 -16.639400 -2.192510 6.469440 -0.000001 173.405000 23.201700 -177.869000 -39.081100 -0.002282 -0.040193 -0.202259 0.325084 32.306100 -40.985400 0.000008 0.000006 4.006280 13.185300 -69.184000 -11.754300 -0.000006 -0.000006 -0.002877 -0.039198 -18.167200
0.000000 0.000000 0.000000 0.000000 0.000000 -0.000000 -1.504920 90.544400 -4.262140 88.787000 -0.566578 14.488500 15.735700 0.000005 -0.000001 88.391900 76.865100 -87.987200 8.984550 -0.406207 -0.000000 18.496900 -0.685236 0.922780 16.377300 -0.000001 -0.000001 6.601290 -3.856380 1.660860 6.456720 -0.000001 -0.000000 -5.230250 -3.598770 1.473550 12.994200 -0.242716 4.980390 -91.504400 7.269610 -78.274700 5.348090 -0.000007 -0.000001 -55.827400 35.801900 -26.077900 24.328600 0.000019 0.000005 12.255300 20.588300 -31.703600 22.291600 -0.000001 0.000005 12.041900 5.251300 1.398270 12.994500 -0.242716 -4.980390 88.876300 11.497300 -84.379600 -5.348130 -0.000001 -0.000004 -56.084000 34.684800 -21.512600 -24.328900 0.000322 -0.000009 2.895270 7.016940 -22.496800 -22.291500 -0.000108 -0.000004 18.846200 5.419190 -3.571830 -2.192480 -6.469440 -0.000000 -172.334000 -12.495200 -0.485391 39.081100 -0.000007 -0.000012 -0.178239 0.268847 33.543700 40.985400 -0.000006 -0.000013 -0.432667 5.303650 -68.062600 11.754300 -0.000000 0.000003 -0.000173 -0.001639 -16.639600 -2.192510 6.469440 -0.000001 173.368000 23.275900 -177.799000 -39.081100 -0.002282 -0.040193 -0.202571 0.325961 32.275700 -40.985400 0.000008 0.000006 4.024100 13.197300 -69.191100 -11.754300 -0.000006 -0.000006 -0.002927 -0.039772 -18.190500
0.000000 0.000000 0.000000 0.000000 0.000000 -0.000000 -1.537340 90.546200 -4.260700 88.794900 -0.522012 14.468500 15.735700 0.000005 -0.000001 88.401000 76.872700 -87.994200 8.984550 -0.406207 -0.000000 18.481800 -0.680619 0.926124 16.377300 -0.000001 -0.000001 6.640090 -3.840910 1.667640 6.456720 -0.000001 -0.000000 -5.278680 -3.582720 1.483080 12.994200 -0.242716 4.980390 -91.498000 7.221490 -78.248000 5.348090 -0.000007 -0.000001 -55.329900 35.218100 -26.425100 24.328600 0.000019 0.000005 12.925300 20.416300 -33.340300 22.291600 -0.000001 0.000005 12.417300 5.252780 1.359230 12.994500 -0.242716 -4.980390 88.886200 11.457000 -84.410000 -5.348130 -0.000001 -0.000004 -56.079500 34.708900 -21.550800 -24.328900 0.000322 -0.000009 2.867940 6.935490 -22.539800 -22.291500 -0.000108 -0.000004 18.820400 5.418900 -3.562030 -2.192480 -6.469440 -0.000000 -172.337000 -12.478000 -0.504239 39.081100 -0.000007 -0.000012 -0.176397 0.266236 33.527200 40.985400 -0.000006 -0.000013 -0.448153 5.311350 -68.047100 11.754300 -0.000000 0.000003 -0.000158 -0.001519 -16.635200 -2.192510 6.469440 -0.000001 173.379000 23.301400 -177.811000 -39.081100 -0.002282 -0.040193 -0.204410 0.328928 32.271300 -40.985400 0.000008 0.000006 4.037260 13.179200 -69.199200 -11.754300 -0.000006 -0.000006 -0.002919 -0.039683 -18.186900
0.000000 0.000000 0.000000 0.000000 0.000000 -0.000000 -1.554350 90.543900 -4.254670 88.813100 -0.500005 14.469700 15.735700 0.000005 -0.000001 88.458200 76.883700 -88.044700 8.984550 -0.406207 -0.000000 18.460500 -0.653814 0.935161 16.377300 -0.000001 -0.000001 6.684940 -3.826190 1.674460 6.456720 -0.000001 -0.000000 -5.319110 -3.593640 1.479130 12.994200 -0.242716 4.980390 -91.483300 7.149100 -78.246100 5.348090 -0.000007 -0.000001 -54.855000 34.557500 -26.715200 24.328600 0.000019 0.000005 13.563200 19.970900 -35.235100 22.291600 -0.000001 0.000005 12.770800 5.255260 1.293210 12.994500 -0.242716 -4.980390 88.891200 11.397400 -84.406000 -5.348130 -0.000001 -0.000004 -56.097700 34.655200 -21.569300 -24.328900 0.000322 -0.000009 2.867310 6.891270 -22.664700 -22.291500 -0.000108 -0.000004 18.579400 5.416250 -3.473160 -2.192480 -6.469440 -0.000000 -172.335000 -12.495200 -0.502331 39.081100 -0.000007 -0.000012 -0.177540 0.267992 33.524200 40.985400 -0.000006 -0.000013 -0.450837 5.350520 -68.041600 11.754300 -0.000000 0.000003 -0.000168 -0.001596 -16.638100 -2.192510 6.469440 -0.000001 173.374000 23.300200 -177.818000 -39.081100 -0.002282 -0.040193 -0.204058 0.328096 32.293000 -40.985400 0.000008 0.000006 4.048310 13.160300 -69.217900 -11.754300 -0.000006 -0.000006 -0.002941 -0.039937 -18.197200
0.000000 0.000000 0.000000 0.000000 0.000000 -0.000000 -1.578800 90.546700 -4.263750 88.814400 -0.441996 14.461700 15.735700 0.000005 -0.000001 88.462700 76.898700 -88.033700 8.984550 -0.406207 -0.000000 18.430700 -0.649736 0.965308 16.377300 -0.000001 -0.000001 6.782630 -3.817540 1.711980 6.456720 -0.000001 -0.000000 -5.380060 -3.591510 1.478560 12.994200 -0.242716 4.980390 -91.480500 7.114420 -78.212900 5.348090 -0.000007 -0.000001 -54.295400 33.790700 -27.122300 24.328600 0.000019 0.000005 14.371700 19.699800 -37.238900 22.291600 -0.000001 0.000005 12.891800 5.256190 1.268620 12.994500 -0.242716 -4.980390 88.897600 11.355800 -84.418400 -5.348130 -0.000001 -0.000004 -56.078700 34.669600 -21.622600 -24.328900 0.000322 -0.000009 2.898840 6.951290 -22.712100 -22.291500 -0.000108 -0.000004 18.759700 5.418740 -3.556880 -2.192480 -6.469440 -0.000000 -172.337000 -12.428700 -0.514338 39.081100 -0.000007 -0.000012 -0.179454 0.271080 33.504700 40.985400 -0.000006 -0.000013 -0.469383 5.357690 -68.022800 11.754300 -0.000000 0.000003 -0.000162 -0.001548 -16.636300 -2.192510 6.469440 -0.000001 173.358000 23.399900 -177.805000 -39.081100 -0.002282 -0.040193 -0.204459 0.328900 32.279600 -40.985400 0.000008 0.000006 4.072590 13.194500 -69.221800 -11.754300 -0.000006 -0.000006 -0.002866 -0.039082 -18.162500
0.000000 0.000000 0.000000 0.000000 0.000000 -0.000000 -1.588180 90.543300 -4.264300 88.836000 -0.394943 14.489900 15.735700 0.000005 -0.000001 88.527700 76.906300 -88.087900 8.984550 -0.406207 -0.000000 18.416000 -0.619249 0.982024 16.377300 -0.000001 -0.000001 6.887140 -3.807250 1.734380 6.456720 -0.000001 -0.000000 -5.374850 -3.608580 1.544960 12.994200 -0.242716 4.980390 -91.459800 7.035880 -78.247400 5.348090 -0.000007 -0.000001 -53.996400 32.740200 -27.431100 24.328600 0.000019 0.000005 15.359500 19.550900 -39.379700 22.291600 -0.000001 0.000005 13.115300 5.258450 1.208710 12.994500 -0.242716 -4.980390 88.901000 11.305100 -84.410800 -5.348130 -0.000001 -0.000004 -56.084100 34.592500 -21.667300 -24.328900 0.000322 -0.000009 2.880180 6.874910 -22.804600 -22.291500 -0.000108 -0.000004 18.683100 5.418780 -3.557990 -2.192480 -6.469440 -0.000000 -172.345000 -12.422800 -0.500634 39.081100 -0.000007 -0.000012 -0.181257 0.273776 33.507400 40.985400 -0.000006 -0.000013 -0.469690 5.384510 -68.011100 11.754300 -0.000000 0.000003 -0.000162 -0.001552 -16.636400 -2.192510 6.469440 -0.000001 173.329000 23.415000 -177.785000 -39.081100 -0.002282 -0.040193 -0.204299 0.328282 32.308200 -40.985400 0.000008 0.000006 4.078770 13.168500 -69.240200 -11.754300 -0.000006 -0.000006 -0.002993 -0.040525 -18.221200
